Genre:Horror
Language:English  http://www.imdb.com/title/tt1425253/
Source:1080p BluRay x264-KaKa


Format : Matroska
File size : 1.47 GiB
Duration : 1h 14mn
Overall bit rate : 2 827 Kbps


Video
Format settings, CABAC : Yes
Format settings, ReFrames : 4 frames
Codec ID : V_MPEG4/ISO/AVC
Duration : 1h 14mn
Bit rate : 2 500 Kbps
Width : 1 280 pixels
Height : 544 pixels
Display aspect ratio : 2.35:1
Frame rate mode : Variable
Frame rate : 25.000 fps
Color space : YUV
Chroma subsampling : 4:2:0
Bit depth : 8 bits
Scan type : Progressive
Bits/(Pixel*Frame) : 0.144
Stream size : 1.24 GiB (84%)
Writing library : x264


Audio
ID : 2
Format : AC-3
Format/Info : Audio Coding 3
Mode extension : CM (complete main)
Codec ID : A_AC3
Duration : 1h 14mn
Bit rate mode : Constant
Bit rate : 384 Kbps
Channel(s) : 6 channels
Channel positions : Front: L C R, Side: L R, LFE
Sampling rate : 48.0 KHz
Bit depth : 16 bits
Video delay : -1mn 5s
Stream size : 205 MiB (14%)
Language : English




Plot:
When a young soldier leaves for a mountain biking excursion he meets the girl of his dreams as well a group of violent locals who want to see them dead at any cost.
 
http://www.rapidhdd.com/images/345988vlcsnap-2010-12-21-11h54m30s93.png 
http://www.rapidhdd.com/images/576123vlcsnap-2010-12-21-11h55m26s143.png 
http://www.rapidhdd.com/images/512343vlcsnap-2010-12-21-11h54m51s58.png